<svg xmlns="http://www.w3.org/2000/svg" viewBox="0 0 459.2 425.6"><g id="Layer_2" data-name="Layer 2"><g id="Layer_1-2" data-name="Layer 1"><path d="M229.6,42.67l51.08,109.78,4.28,9.2,10.09,1.1L417,176.06,326.7,256.35l-7.81,6.94,2.16,10.22,24.71,117.26-107.44-59.5-8.72-4.83-8.72,4.83-107.44,59.5,24.71-117.26,2.16-10.22-7.81-6.94L42.25,176.06l121.9-13.31,10.09-1.1,4.28-9.2L229.6,42.67M229.6,0,162.2,144.86,0,162.57,120.54,269.8,87.7,425.6,229.6,347,371.5,425.6,338.66,269.8,459.2,162.57,297,144.86,229.6,0Z"/></g></g></svg>