<?xml version="1.0" encoding="UTF-8"?><svg id="Layer_2" xmlns="http://www.w3.org/2000/svg" viewBox="0 0 612.62 628.98"><g id="Layer_1-2"><rect width="612.62" height="628.98" rx="54.8" ry="54.8" style="fill:#fffefd;"/><g><path d="M203.77,208.11c6.81-61.28,23.83-172.77,102.98-173.62,78.3,.85,95.32,112.34,102.13,173.62h-23.83c-6.81-44.25-22.98-147.23-78.3-147.23s-71.49,102.98-79.15,147.23h-23.84Z" style="fill-rule:evenodd;"/><path d="M64.19,248.11l31.49,264.68c11.06,33.19,36.6,48.51,70.64,51.91H447.16c34.04-3.4,58.72-18.72,69.79-51.91l32.34-264.68H64.19Zm345.53,15.32c-11.91,0-21.28,9.36-21.28,21.28s9.36,22.13,21.28,22.13,21.28-10.21,21.28-22.13-9.36-21.28-21.28-21.28Zm-245.96,331.06c-44.25,0-76.6-23.83-93.62-74.04L36.95,238.75c-.85-7.66,1.7-12.77,9.36-14.47H566.31c7.66,1.7,10.21,6.81,9.36,14.47l-33.19,281.7c-17.02,50.21-49.36,74.04-93.62,74.04H163.76Z" style="fill-rule:evenodd;"/><path d="M224.19,284.7c0,11.75-9.52,21.28-21.27,21.28s-21.28-9.52-21.28-21.28,9.52-21.27,21.28-21.27,21.27,9.52,21.27,21.27" style="fill-rule:evenodd;"/></g></g></svg>